<mxfile host="Electron" modified="2024-05-01T15:14:35.344Z" agent="Mozilla/5.0 (Windows NT 10.0; Win64; x64) AppleWebKit/537.36 (KHTML, like Gecko) draw.io/22.1.21 Chrome/120.0.6099.109 Electron/28.1.0 Safari/537.36" etag="2I3FtfYP4waJBz-beCcF" version="22.1.21" type="device">
  <diagram id="C5RBs43oDa-KdzZeNtuy" name="Page-1">
    <mxGraphModel dx="1886" dy="1020" grid="1" gridSize="10" guides="1" tooltips="1" connect="1" arrows="1" fold="1" page="1" pageScale="1" pageWidth="827" pageHeight="1169" math="0" shadow="0">
      <root>
        <mxCell id="WIyWlLk6GJQsqaUBKTNV-0" />
        <mxCell id="WIyWlLk6GJQsqaUBKTNV-1" parent="WIyWlLk6GJQsqaUBKTNV-0" />
        <mxCell id="2TClkCPPBv8SPLMzAStg-0" value="&lt;p style=&quot;margin:0px;margin-top:4px;text-align:center;&quot;&gt;&lt;i&gt;&amp;lt;&amp;lt;Interface&amp;gt;&amp;gt;&lt;/i&gt;&lt;br&gt;&lt;b&gt;IntegratedCircuitBuilder&lt;/b&gt;&lt;/p&gt;&lt;hr size=&quot;1&quot;&gt;&lt;p style=&quot;margin:0px;margin-left:4px;&quot;&gt;+ circuit: IntegratedCircuit&lt;/p&gt;&lt;hr size=&quot;1&quot;&gt;&lt;p style=&quot;margin:0px;margin-left:4px;&quot;&gt;+ setLogicGates(): void&lt;br&gt;+ connectGates(): void&lt;/p&gt;&lt;p style=&quot;margin:0px;margin-left:4px;&quot;&gt;+ setInputs(): void&lt;/p&gt;&lt;p style=&quot;margin:0px;margin-left:4px;&quot;&gt;+ setOutputs(): void&lt;/p&gt;&lt;p style=&quot;margin:0px;margin-left:4px;&quot;&gt;+ getResult() : IntegratedCircuit&lt;/p&gt;" style="verticalAlign=top;align=left;overflow=fill;fontSize=12;fontFamily=Helvetica;html=1;whiteSpace=wrap;" parent="WIyWlLk6GJQsqaUBKTNV-1" vertex="1">
          <mxGeometry x="319" y="10" width="190" height="150" as="geometry" />
        </mxCell>
        <mxCell id="2TClkCPPBv8SPLMzAStg-38" style="edgeStyle=orthogonalEdgeStyle;rounded=0;orthogonalLoop=1;jettySize=auto;html=1;dashed=1;endArrow=none;endFill=0;" parent="WIyWlLk6GJQsqaUBKTNV-1" source="2TClkCPPBv8SPLMzAStg-17" edge="1">
          <mxGeometry relative="1" as="geometry">
            <mxPoint x="270.0000000000002" y="275" as="targetPoint" />
          </mxGeometry>
        </mxCell>
        <mxCell id="2TClkCPPBv8SPLMzAStg-17" value="&lt;p style=&quot;margin:0px;margin-top:4px;text-align:center;&quot;&gt;&lt;b&gt;74LS00Builder&lt;/b&gt;&lt;/p&gt;&lt;hr size=&quot;1&quot;&gt;&lt;p style=&quot;margin:0px;margin-left:4px;&quot;&gt;+ circuit: IntegratedCircuit&lt;/p&gt;&lt;hr size=&quot;1&quot;&gt;&lt;p style=&quot;border-color: var(--border-color); margin: 0px 0px 0px 4px;&quot;&gt;+ setLogicGates(): void&lt;br style=&quot;border-color: var(--border-color);&quot;&gt;+ connectGates(): void&lt;/p&gt;&lt;p style=&quot;border-color: var(--border-color); margin: 0px 0px 0px 4px;&quot;&gt;+ setInputs(): void&lt;/p&gt;&lt;p style=&quot;border-color: var(--border-color); margin: 0px 0px 0px 4px;&quot;&gt;+ setOutputs(): void&lt;/p&gt;&lt;p style=&quot;border-color: var(--border-color); margin: 0px 0px 0px 4px;&quot;&gt;+ getResult() : IntegratedCircuit&lt;/p&gt;" style="verticalAlign=top;align=left;overflow=fill;fontSize=12;fontFamily=Helvetica;html=1;whiteSpace=wrap;" parent="WIyWlLk6GJQsqaUBKTNV-1" vertex="1">
          <mxGeometry x="40" y="200" width="190" height="150" as="geometry" />
        </mxCell>
        <mxCell id="2TClkCPPBv8SPLMzAStg-39" style="edgeStyle=orthogonalEdgeStyle;rounded=0;orthogonalLoop=1;jettySize=auto;html=1;dashed=1;endArrow=none;endFill=0;" parent="WIyWlLk6GJQsqaUBKTNV-1" source="2TClkCPPBv8SPLMzAStg-18" edge="1">
          <mxGeometry relative="1" as="geometry">
            <mxPoint x="270.0000000000002" y="275" as="targetPoint" />
          </mxGeometry>
        </mxCell>
        <mxCell id="2TClkCPPBv8SPLMzAStg-60" style="edgeStyle=orthogonalEdgeStyle;rounded=0;orthogonalLoop=1;jettySize=auto;html=1;dashed=1;endArrow=none;endFill=0;" parent="WIyWlLk6GJQsqaUBKTNV-1" source="2TClkCPPBv8SPLMzAStg-18" edge="1">
          <mxGeometry relative="1" as="geometry">
            <mxPoint x="560" y="275" as="targetPoint" />
          </mxGeometry>
        </mxCell>
        <mxCell id="2TClkCPPBv8SPLMzAStg-18" value="&lt;p style=&quot;margin:0px;margin-top:4px;text-align:center;&quot;&gt;&lt;b&gt;74HC02Builder&lt;/b&gt;&lt;/p&gt;&lt;hr size=&quot;1&quot;&gt;&lt;p style=&quot;margin:0px;margin-left:4px;&quot;&gt;+ circuit: IntegratedCircuit&lt;/p&gt;&lt;hr size=&quot;1&quot;&gt;&lt;p style=&quot;border-color: var(--border-color); margin: 0px 0px 0px 4px;&quot;&gt;+ setLogicGates(): void&lt;br style=&quot;border-color: var(--border-color);&quot;&gt;+ connectGates(): void&lt;/p&gt;&lt;p style=&quot;border-color: var(--border-color); margin: 0px 0px 0px 4px;&quot;&gt;+ setInputs(): void&lt;/p&gt;&lt;p style=&quot;border-color: var(--border-color); margin: 0px 0px 0px 4px;&quot;&gt;+ setOutputs(): void&lt;/p&gt;&lt;p style=&quot;border-color: var(--border-color); margin: 0px 0px 0px 4px;&quot;&gt;+ getResult() : IntegratedCircuit&lt;/p&gt;" style="verticalAlign=top;align=left;overflow=fill;fontSize=12;fontFamily=Helvetica;html=1;whiteSpace=wrap;" parent="WIyWlLk6GJQsqaUBKTNV-1" vertex="1">
          <mxGeometry x="319" y="200" width="190" height="150" as="geometry" />
        </mxCell>
        <mxCell id="2TClkCPPBv8SPLMzAStg-59" style="edgeStyle=orthogonalEdgeStyle;rounded=0;orthogonalLoop=1;jettySize=auto;html=1;dashed=1;endArrow=none;endFill=0;" parent="WIyWlLk6GJQsqaUBKTNV-1" source="2TClkCPPBv8SPLMzAStg-19" edge="1">
          <mxGeometry relative="1" as="geometry">
            <mxPoint x="560" y="275" as="targetPoint" />
          </mxGeometry>
        </mxCell>
        <mxCell id="2TClkCPPBv8SPLMzAStg-19" value="&lt;p style=&quot;margin:0px;margin-top:4px;text-align:center;&quot;&gt;&lt;b&gt;74HC04Builder&lt;/b&gt;&lt;/p&gt;&lt;hr size=&quot;1&quot;&gt;&lt;p style=&quot;margin:0px;margin-left:4px;&quot;&gt;+ circuit: IntegratedCircuit&lt;/p&gt;&lt;hr size=&quot;1&quot;&gt;&lt;p style=&quot;border-color: var(--border-color); margin: 0px 0px 0px 4px;&quot;&gt;+ setLogicGates(): void&lt;br style=&quot;border-color: var(--border-color);&quot;&gt;+ connectGates(): void&lt;/p&gt;&lt;p style=&quot;border-color: var(--border-color); margin: 0px 0px 0px 4px;&quot;&gt;+ setInputs(): void&lt;/p&gt;&lt;p style=&quot;border-color: var(--border-color); margin: 0px 0px 0px 4px;&quot;&gt;+ setOutputs(): void&lt;/p&gt;&lt;p style=&quot;border-color: var(--border-color); margin: 0px 0px 0px 4px;&quot;&gt;+ getResult() : IntegratedCircuit&lt;/p&gt;" style="verticalAlign=top;align=left;overflow=fill;fontSize=12;fontFamily=Helvetica;html=1;whiteSpace=wrap;" parent="WIyWlLk6GJQsqaUBKTNV-1" vertex="1">
          <mxGeometry x="610" y="200" width="190" height="150" as="geometry" />
        </mxCell>
        <mxCell id="2TClkCPPBv8SPLMzAStg-40" style="edgeStyle=orthogonalEdgeStyle;rounded=0;orthogonalLoop=1;jettySize=auto;html=1;dashed=1;endArrow=none;endFill=0;" parent="WIyWlLk6GJQsqaUBKTNV-1" source="2TClkCPPBv8SPLMzAStg-20" edge="1">
          <mxGeometry relative="1" as="geometry">
            <mxPoint x="270.0000000000002" y="455" as="targetPoint" />
          </mxGeometry>
        </mxCell>
        <mxCell id="2TClkCPPBv8SPLMzAStg-20" value="&lt;p style=&quot;margin:0px;margin-top:4px;text-align:center;&quot;&gt;&lt;b&gt;74HC08Builder&lt;/b&gt;&lt;/p&gt;&lt;hr size=&quot;1&quot;&gt;&lt;p style=&quot;margin:0px;margin-left:4px;&quot;&gt;+ circuit: IntegratedCircuit&lt;/p&gt;&lt;hr size=&quot;1&quot;&gt;&lt;p style=&quot;border-color: var(--border-color); margin: 0px 0px 0px 4px;&quot;&gt;+ setLogicGates(): void&lt;br style=&quot;border-color: var(--border-color);&quot;&gt;+ connectGates(): void&lt;/p&gt;&lt;p style=&quot;border-color: var(--border-color); margin: 0px 0px 0px 4px;&quot;&gt;+ setInputs(): void&lt;/p&gt;&lt;p style=&quot;border-color: var(--border-color); margin: 0px 0px 0px 4px;&quot;&gt;+ setOutputs(): void&lt;/p&gt;&lt;p style=&quot;border-color: var(--border-color); margin: 0px 0px 0px 4px;&quot;&gt;+ getResult() : IntegratedCircuit&lt;/p&gt;" style="verticalAlign=top;align=left;overflow=fill;fontSize=12;fontFamily=Helvetica;html=1;whiteSpace=wrap;" parent="WIyWlLk6GJQsqaUBKTNV-1" vertex="1">
          <mxGeometry x="40" y="380" width="190" height="150" as="geometry" />
        </mxCell>
        <mxCell id="2TClkCPPBv8SPLMzAStg-42" style="edgeStyle=orthogonalEdgeStyle;rounded=0;orthogonalLoop=1;jettySize=auto;html=1;dashed=1;endArrow=none;endFill=0;" parent="WIyWlLk6GJQsqaUBKTNV-1" source="2TClkCPPBv8SPLMzAStg-21" edge="1">
          <mxGeometry relative="1" as="geometry">
            <mxPoint x="270.0000000000002" y="455" as="targetPoint" />
          </mxGeometry>
        </mxCell>
        <mxCell id="2TClkCPPBv8SPLMzAStg-57" style="edgeStyle=orthogonalEdgeStyle;rounded=0;orthogonalLoop=1;jettySize=auto;html=1;dashed=1;endArrow=none;endFill=0;" parent="WIyWlLk6GJQsqaUBKTNV-1" source="2TClkCPPBv8SPLMzAStg-21" edge="1">
          <mxGeometry relative="1" as="geometry">
            <mxPoint x="560" y="455" as="targetPoint" />
          </mxGeometry>
        </mxCell>
        <mxCell id="2TClkCPPBv8SPLMzAStg-21" value="&lt;p style=&quot;margin:0px;margin-top:4px;text-align:center;&quot;&gt;&lt;b&gt;74HC10Builder&lt;/b&gt;&lt;/p&gt;&lt;hr size=&quot;1&quot;&gt;&lt;p style=&quot;margin:0px;margin-left:4px;&quot;&gt;+ circuit: IntegratedCircuit&lt;/p&gt;&lt;hr size=&quot;1&quot;&gt;&lt;p style=&quot;border-color: var(--border-color); margin: 0px 0px 0px 4px;&quot;&gt;+ setLogicGates(): void&lt;br style=&quot;border-color: var(--border-color);&quot;&gt;+ connectGates(): void&lt;/p&gt;&lt;p style=&quot;border-color: var(--border-color); margin: 0px 0px 0px 4px;&quot;&gt;+ setInputs(): void&lt;/p&gt;&lt;p style=&quot;border-color: var(--border-color); margin: 0px 0px 0px 4px;&quot;&gt;+ setOutputs(): void&lt;/p&gt;&lt;p style=&quot;border-color: var(--border-color); margin: 0px 0px 0px 4px;&quot;&gt;+ getResult() : IntegratedCircuit&lt;/p&gt;" style="verticalAlign=top;align=left;overflow=fill;fontSize=12;fontFamily=Helvetica;html=1;whiteSpace=wrap;" parent="WIyWlLk6GJQsqaUBKTNV-1" vertex="1">
          <mxGeometry x="319" y="380" width="190" height="150" as="geometry" />
        </mxCell>
        <mxCell id="2TClkCPPBv8SPLMzAStg-58" style="edgeStyle=orthogonalEdgeStyle;rounded=0;orthogonalLoop=1;jettySize=auto;html=1;dashed=1;endArrow=none;endFill=0;" parent="WIyWlLk6GJQsqaUBKTNV-1" source="2TClkCPPBv8SPLMzAStg-22" edge="1">
          <mxGeometry relative="1" as="geometry">
            <mxPoint x="560" y="455" as="targetPoint" />
          </mxGeometry>
        </mxCell>
        <mxCell id="2TClkCPPBv8SPLMzAStg-22" value="&lt;p style=&quot;margin:0px;margin-top:4px;text-align:center;&quot;&gt;&lt;b&gt;74HC11Builder&lt;/b&gt;&lt;/p&gt;&lt;hr size=&quot;1&quot;&gt;&lt;p style=&quot;margin:0px;margin-left:4px;&quot;&gt;+ circuit: IntegratedCircuit&lt;/p&gt;&lt;hr size=&quot;1&quot;&gt;&lt;p style=&quot;border-color: var(--border-color); margin: 0px 0px 0px 4px;&quot;&gt;+ setLogicGates(): void&lt;br style=&quot;border-color: var(--border-color);&quot;&gt;+ connectGates(): void&lt;/p&gt;&lt;p style=&quot;border-color: var(--border-color); margin: 0px 0px 0px 4px;&quot;&gt;+ setInputs(): void&lt;/p&gt;&lt;p style=&quot;border-color: var(--border-color); margin: 0px 0px 0px 4px;&quot;&gt;+ setOutputs(): void&lt;/p&gt;&lt;p style=&quot;border-color: var(--border-color); margin: 0px 0px 0px 4px;&quot;&gt;+ getResult() : IntegratedCircuit&lt;/p&gt;" style="verticalAlign=top;align=left;overflow=fill;fontSize=12;fontFamily=Helvetica;html=1;whiteSpace=wrap;" parent="WIyWlLk6GJQsqaUBKTNV-1" vertex="1">
          <mxGeometry x="610" y="380" width="190" height="150" as="geometry" />
        </mxCell>
        <mxCell id="2TClkCPPBv8SPLMzAStg-43" style="edgeStyle=orthogonalEdgeStyle;rounded=0;orthogonalLoop=1;jettySize=auto;html=1;dashed=1;endArrow=none;endFill=0;" parent="WIyWlLk6GJQsqaUBKTNV-1" source="2TClkCPPBv8SPLMzAStg-23" edge="1">
          <mxGeometry relative="1" as="geometry">
            <mxPoint x="270.0000000000002" y="635" as="targetPoint" />
          </mxGeometry>
        </mxCell>
        <mxCell id="2TClkCPPBv8SPLMzAStg-23" value="&lt;p style=&quot;margin:0px;margin-top:4px;text-align:center;&quot;&gt;&lt;b&gt;74HC20Builder&lt;/b&gt;&lt;/p&gt;&lt;hr size=&quot;1&quot;&gt;&lt;p style=&quot;margin:0px;margin-left:4px;&quot;&gt;+ circuit: IntegratedCircuit&lt;/p&gt;&lt;hr size=&quot;1&quot;&gt;&lt;p style=&quot;border-color: var(--border-color); margin: 0px 0px 0px 4px;&quot;&gt;+ setLogicGates(): void&lt;br style=&quot;border-color: var(--border-color);&quot;&gt;+ connectGates(): void&lt;/p&gt;&lt;p style=&quot;border-color: var(--border-color); margin: 0px 0px 0px 4px;&quot;&gt;+ setInputs(): void&lt;/p&gt;&lt;p style=&quot;border-color: var(--border-color); margin: 0px 0px 0px 4px;&quot;&gt;+ setOutputs(): void&lt;/p&gt;&lt;p style=&quot;border-color: var(--border-color); margin: 0px 0px 0px 4px;&quot;&gt;+ getResult() : IntegratedCircuit&lt;/p&gt;" style="verticalAlign=top;align=left;overflow=fill;fontSize=12;fontFamily=Helvetica;html=1;whiteSpace=wrap;" parent="WIyWlLk6GJQsqaUBKTNV-1" vertex="1">
          <mxGeometry x="40" y="560" width="190" height="150" as="geometry" />
        </mxCell>
        <mxCell id="2TClkCPPBv8SPLMzAStg-44" style="edgeStyle=orthogonalEdgeStyle;rounded=0;orthogonalLoop=1;jettySize=auto;html=1;dashed=1;endArrow=none;endFill=0;" parent="WIyWlLk6GJQsqaUBKTNV-1" source="2TClkCPPBv8SPLMzAStg-24" edge="1">
          <mxGeometry relative="1" as="geometry">
            <mxPoint x="270.0000000000002" y="635" as="targetPoint" />
          </mxGeometry>
        </mxCell>
        <mxCell id="2TClkCPPBv8SPLMzAStg-56" style="edgeStyle=orthogonalEdgeStyle;rounded=0;orthogonalLoop=1;jettySize=auto;html=1;dashed=1;endArrow=none;endFill=0;" parent="WIyWlLk6GJQsqaUBKTNV-1" source="2TClkCPPBv8SPLMzAStg-24" edge="1">
          <mxGeometry relative="1" as="geometry">
            <mxPoint x="560" y="635" as="targetPoint" />
          </mxGeometry>
        </mxCell>
        <mxCell id="2TClkCPPBv8SPLMzAStg-24" value="&lt;p style=&quot;margin:0px;margin-top:4px;text-align:center;&quot;&gt;&lt;b&gt;74LS31Builder&lt;/b&gt;&lt;/p&gt;&lt;hr size=&quot;1&quot;&gt;&lt;p style=&quot;margin:0px;margin-left:4px;&quot;&gt;+ circuit: IntegratedCircuit&lt;/p&gt;&lt;hr size=&quot;1&quot;&gt;&lt;p style=&quot;border-color: var(--border-color); margin: 0px 0px 0px 4px;&quot;&gt;+ setLogicGates(): void&lt;br style=&quot;border-color: var(--border-color);&quot;&gt;+ connectGates(): void&lt;/p&gt;&lt;p style=&quot;border-color: var(--border-color); margin: 0px 0px 0px 4px;&quot;&gt;+ setInputs(): void&lt;/p&gt;&lt;p style=&quot;border-color: var(--border-color); margin: 0px 0px 0px 4px;&quot;&gt;+ setOutputs(): void&lt;/p&gt;&lt;p style=&quot;border-color: var(--border-color); margin: 0px 0px 0px 4px;&quot;&gt;+ getResult() : IntegratedCircuit&lt;/p&gt;" style="verticalAlign=top;align=left;overflow=fill;fontSize=12;fontFamily=Helvetica;html=1;whiteSpace=wrap;" parent="WIyWlLk6GJQsqaUBKTNV-1" vertex="1">
          <mxGeometry x="319" y="560" width="190" height="150" as="geometry" />
        </mxCell>
        <mxCell id="2TClkCPPBv8SPLMzAStg-55" style="edgeStyle=orthogonalEdgeStyle;rounded=0;orthogonalLoop=1;jettySize=auto;html=1;dashed=1;endArrow=none;endFill=0;" parent="WIyWlLk6GJQsqaUBKTNV-1" source="2TClkCPPBv8SPLMzAStg-25" edge="1">
          <mxGeometry relative="1" as="geometry">
            <mxPoint x="560" y="635" as="targetPoint" />
          </mxGeometry>
        </mxCell>
        <mxCell id="2TClkCPPBv8SPLMzAStg-25" value="&lt;p style=&quot;margin:0px;margin-top:4px;text-align:center;&quot;&gt;&lt;b&gt;74LS32Builder&lt;/b&gt;&lt;/p&gt;&lt;hr size=&quot;1&quot;&gt;&lt;p style=&quot;margin:0px;margin-left:4px;&quot;&gt;+ circuit: IntegratedCircuit&lt;/p&gt;&lt;hr size=&quot;1&quot;&gt;&lt;p style=&quot;border-color: var(--border-color); margin: 0px 0px 0px 4px;&quot;&gt;+ setLogicGates(): void&lt;br style=&quot;border-color: var(--border-color);&quot;&gt;+ connectGates(): void&lt;/p&gt;&lt;p style=&quot;border-color: var(--border-color); margin: 0px 0px 0px 4px;&quot;&gt;+ setInputs(): void&lt;/p&gt;&lt;p style=&quot;border-color: var(--border-color); margin: 0px 0px 0px 4px;&quot;&gt;+ setOutputs(): void&lt;/p&gt;&lt;p style=&quot;border-color: var(--border-color); margin: 0px 0px 0px 4px;&quot;&gt;+ getResult() : IntegratedCircuit&lt;/p&gt;" style="verticalAlign=top;align=left;overflow=fill;fontSize=12;fontFamily=Helvetica;html=1;whiteSpace=wrap;" parent="WIyWlLk6GJQsqaUBKTNV-1" vertex="1">
          <mxGeometry x="610" y="560" width="190" height="150" as="geometry" />
        </mxCell>
        <mxCell id="2TClkCPPBv8SPLMzAStg-45" style="edgeStyle=orthogonalEdgeStyle;rounded=0;orthogonalLoop=1;jettySize=auto;html=1;dashed=1;endArrow=none;endFill=0;" parent="WIyWlLk6GJQsqaUBKTNV-1" source="2TClkCPPBv8SPLMzAStg-26" edge="1">
          <mxGeometry relative="1" as="geometry">
            <mxPoint x="270.0000000000002" y="815" as="targetPoint" />
          </mxGeometry>
        </mxCell>
        <mxCell id="2TClkCPPBv8SPLMzAStg-26" value="&lt;p style=&quot;margin:0px;margin-top:4px;text-align:center;&quot;&gt;&lt;b&gt;74ALS34Builder&lt;/b&gt;&lt;/p&gt;&lt;hr size=&quot;1&quot;&gt;&lt;p style=&quot;margin:0px;margin-left:4px;&quot;&gt;+ circuit: IntegratedCircuit&lt;/p&gt;&lt;hr size=&quot;1&quot;&gt;&lt;p style=&quot;border-color: var(--border-color); margin: 0px 0px 0px 4px;&quot;&gt;+ setLogicGates(): void&lt;br style=&quot;border-color: var(--border-color);&quot;&gt;+ connectGates(): void&lt;/p&gt;&lt;p style=&quot;border-color: var(--border-color); margin: 0px 0px 0px 4px;&quot;&gt;+ setInputs(): void&lt;/p&gt;&lt;p style=&quot;border-color: var(--border-color); margin: 0px 0px 0px 4px;&quot;&gt;+ setOutputs(): void&lt;/p&gt;&lt;p style=&quot;border-color: var(--border-color); margin: 0px 0px 0px 4px;&quot;&gt;+ getResult() : IntegratedCircuit&lt;/p&gt;" style="verticalAlign=top;align=left;overflow=fill;fontSize=12;fontFamily=Helvetica;html=1;whiteSpace=wrap;" parent="WIyWlLk6GJQsqaUBKTNV-1" vertex="1">
          <mxGeometry x="40" y="740" width="190" height="150" as="geometry" />
        </mxCell>
        <mxCell id="2TClkCPPBv8SPLMzAStg-46" style="edgeStyle=orthogonalEdgeStyle;rounded=0;orthogonalLoop=1;jettySize=auto;html=1;dashed=1;endArrow=none;endFill=0;" parent="WIyWlLk6GJQsqaUBKTNV-1" source="2TClkCPPBv8SPLMzAStg-27" edge="1">
          <mxGeometry relative="1" as="geometry">
            <mxPoint x="270.0000000000002" y="815" as="targetPoint" />
          </mxGeometry>
        </mxCell>
        <mxCell id="2TClkCPPBv8SPLMzAStg-53" style="edgeStyle=orthogonalEdgeStyle;rounded=0;orthogonalLoop=1;jettySize=auto;html=1;dashed=1;endArrow=none;endFill=0;" parent="WIyWlLk6GJQsqaUBKTNV-1" source="2TClkCPPBv8SPLMzAStg-27" edge="1">
          <mxGeometry relative="1" as="geometry">
            <mxPoint x="560" y="815" as="targetPoint" />
          </mxGeometry>
        </mxCell>
        <mxCell id="2TClkCPPBv8SPLMzAStg-27" value="&lt;p style=&quot;margin:0px;margin-top:4px;text-align:center;&quot;&gt;&lt;b&gt;74LS42Builder&lt;/b&gt;&lt;/p&gt;&lt;hr size=&quot;1&quot;&gt;&lt;p style=&quot;margin:0px;margin-left:4px;&quot;&gt;+ circuit: IntegratedCircuit&lt;/p&gt;&lt;hr size=&quot;1&quot;&gt;&lt;p style=&quot;border-color: var(--border-color); margin: 0px 0px 0px 4px;&quot;&gt;+ setLogicGates(): void&lt;br style=&quot;border-color: var(--border-color);&quot;&gt;+ connectGates(): void&lt;/p&gt;&lt;p style=&quot;border-color: var(--border-color); margin: 0px 0px 0px 4px;&quot;&gt;+ setInputs(): void&lt;/p&gt;&lt;p style=&quot;border-color: var(--border-color); margin: 0px 0px 0px 4px;&quot;&gt;+ setOutputs(): void&lt;/p&gt;&lt;p style=&quot;border-color: var(--border-color); margin: 0px 0px 0px 4px;&quot;&gt;+ getResult() : IntegratedCircuit&lt;/p&gt;" style="verticalAlign=top;align=left;overflow=fill;fontSize=12;fontFamily=Helvetica;html=1;whiteSpace=wrap;" parent="WIyWlLk6GJQsqaUBKTNV-1" vertex="1">
          <mxGeometry x="319" y="740" width="190" height="150" as="geometry" />
        </mxCell>
        <mxCell id="2TClkCPPBv8SPLMzAStg-52" style="edgeStyle=orthogonalEdgeStyle;rounded=0;orthogonalLoop=1;jettySize=auto;html=1;dashed=1;endArrow=none;endFill=0;" parent="WIyWlLk6GJQsqaUBKTNV-1" source="2TClkCPPBv8SPLMzAStg-28" edge="1">
          <mxGeometry relative="1" as="geometry">
            <mxPoint x="560" y="815" as="targetPoint" />
          </mxGeometry>
        </mxCell>
        <mxCell id="2TClkCPPBv8SPLMzAStg-28" value="&lt;p style=&quot;margin:0px;margin-top:4px;text-align:center;&quot;&gt;&lt;b&gt;74LS44Builder&lt;/b&gt;&lt;/p&gt;&lt;hr size=&quot;1&quot;&gt;&lt;p style=&quot;margin:0px;margin-left:4px;&quot;&gt;+ circuit: IntegratedCircuit&lt;/p&gt;&lt;hr size=&quot;1&quot;&gt;&lt;p style=&quot;border-color: var(--border-color); margin: 0px 0px 0px 4px;&quot;&gt;+ setLogicGates(): void&lt;br style=&quot;border-color: var(--border-color);&quot;&gt;+ connectGates(): void&lt;/p&gt;&lt;p style=&quot;border-color: var(--border-color); margin: 0px 0px 0px 4px;&quot;&gt;+ setInputs(): void&lt;/p&gt;&lt;p style=&quot;border-color: var(--border-color); margin: 0px 0px 0px 4px;&quot;&gt;+ setOutputs(): void&lt;/p&gt;&lt;p style=&quot;border-color: var(--border-color); margin: 0px 0px 0px 4px;&quot;&gt;+ getResult() : IntegratedCircuit&lt;/p&gt;" style="verticalAlign=top;align=left;overflow=fill;fontSize=12;fontFamily=Helvetica;html=1;whiteSpace=wrap;" parent="WIyWlLk6GJQsqaUBKTNV-1" vertex="1">
          <mxGeometry x="610" y="740" width="190" height="150" as="geometry" />
        </mxCell>
        <mxCell id="2TClkCPPBv8SPLMzAStg-47" style="edgeStyle=orthogonalEdgeStyle;rounded=0;orthogonalLoop=1;jettySize=auto;html=1;dashed=1;endArrow=none;endFill=0;" parent="WIyWlLk6GJQsqaUBKTNV-1" source="2TClkCPPBv8SPLMzAStg-29" edge="1">
          <mxGeometry relative="1" as="geometry">
            <mxPoint x="270.0000000000002" y="1005" as="targetPoint" />
          </mxGeometry>
        </mxCell>
        <mxCell id="2TClkCPPBv8SPLMzAStg-29" value="&lt;p style=&quot;margin:0px;margin-top:4px;text-align:center;&quot;&gt;&lt;b&gt;7482Builder&lt;/b&gt;&lt;/p&gt;&lt;hr size=&quot;1&quot;&gt;&lt;p style=&quot;margin:0px;margin-left:4px;&quot;&gt;+ circuit: IntegratedCircuit&lt;/p&gt;&lt;hr size=&quot;1&quot;&gt;&lt;p style=&quot;border-color: var(--border-color); margin: 0px 0px 0px 4px;&quot;&gt;+ setLogicGates(): void&lt;br style=&quot;border-color: var(--border-color);&quot;&gt;+ connectGates(): void&lt;/p&gt;&lt;p style=&quot;border-color: var(--border-color); margin: 0px 0px 0px 4px;&quot;&gt;+ setInputs(): void&lt;/p&gt;&lt;p style=&quot;border-color: var(--border-color); margin: 0px 0px 0px 4px;&quot;&gt;+ setOutputs(): void&lt;/p&gt;&lt;p style=&quot;border-color: var(--border-color); margin: 0px 0px 0px 4px;&quot;&gt;+ getResult() : IntegratedCircuit&lt;/p&gt;" style="verticalAlign=top;align=left;overflow=fill;fontSize=12;fontFamily=Helvetica;html=1;whiteSpace=wrap;" parent="WIyWlLk6GJQsqaUBKTNV-1" vertex="1">
          <mxGeometry x="40" y="930" width="190" height="150" as="geometry" />
        </mxCell>
        <mxCell id="2TClkCPPBv8SPLMzAStg-48" style="edgeStyle=orthogonalEdgeStyle;rounded=0;orthogonalLoop=1;jettySize=auto;html=1;dashed=1;endArrow=none;endFill=0;" parent="WIyWlLk6GJQsqaUBKTNV-1" source="2TClkCPPBv8SPLMzAStg-30" edge="1">
          <mxGeometry relative="1" as="geometry">
            <mxPoint x="270.0000000000002" y="1005" as="targetPoint" />
          </mxGeometry>
        </mxCell>
        <mxCell id="2TClkCPPBv8SPLMzAStg-50" style="edgeStyle=orthogonalEdgeStyle;rounded=0;orthogonalLoop=1;jettySize=auto;html=1;dashed=1;endArrow=none;endFill=0;" parent="WIyWlLk6GJQsqaUBKTNV-1" source="2TClkCPPBv8SPLMzAStg-30" edge="1">
          <mxGeometry relative="1" as="geometry">
            <mxPoint x="560" y="1005" as="targetPoint" />
          </mxGeometry>
        </mxCell>
        <mxCell id="2TClkCPPBv8SPLMzAStg-30" value="&lt;p style=&quot;margin:0px;margin-top:4px;text-align:center;&quot;&gt;&lt;b&gt;74138Builder&lt;/b&gt;&lt;/p&gt;&lt;hr size=&quot;1&quot;&gt;&lt;p style=&quot;margin:0px;margin-left:4px;&quot;&gt;+ circuit: IntegratedCircuit&lt;/p&gt;&lt;hr size=&quot;1&quot;&gt;&lt;p style=&quot;border-color: var(--border-color); margin: 0px 0px 0px 4px;&quot;&gt;+ setLogicGates(): void&lt;br style=&quot;border-color: var(--border-color);&quot;&gt;+ connectGates(): void&lt;/p&gt;&lt;p style=&quot;border-color: var(--border-color); margin: 0px 0px 0px 4px;&quot;&gt;+ setInputs(): void&lt;/p&gt;&lt;p style=&quot;border-color: var(--border-color); margin: 0px 0px 0px 4px;&quot;&gt;+ setOutputs(): void&lt;/p&gt;&lt;p style=&quot;border-color: var(--border-color); margin: 0px 0px 0px 4px;&quot;&gt;+ getResult() : IntegratedCircuit&lt;/p&gt;" style="verticalAlign=top;align=left;overflow=fill;fontSize=12;fontFamily=Helvetica;html=1;whiteSpace=wrap;" parent="WIyWlLk6GJQsqaUBKTNV-1" vertex="1">
          <mxGeometry x="319" y="930" width="190" height="150" as="geometry" />
        </mxCell>
        <mxCell id="2TClkCPPBv8SPLMzAStg-49" style="edgeStyle=orthogonalEdgeStyle;rounded=0;orthogonalLoop=1;jettySize=auto;html=1;dashed=1;endArrow=none;endFill=0;" parent="WIyWlLk6GJQsqaUBKTNV-1" source="2TClkCPPBv8SPLMzAStg-31" edge="1">
          <mxGeometry relative="1" as="geometry">
            <mxPoint x="560" y="1005" as="targetPoint" />
          </mxGeometry>
        </mxCell>
        <mxCell id="2TClkCPPBv8SPLMzAStg-31" value="&lt;p style=&quot;margin:0px;margin-top:4px;text-align:center;&quot;&gt;&lt;b&gt;74152Builder&lt;/b&gt;&lt;/p&gt;&lt;hr size=&quot;1&quot;&gt;&lt;p style=&quot;margin:0px;margin-left:4px;&quot;&gt;+ circuit: IntegratedCircuit&lt;/p&gt;&lt;hr size=&quot;1&quot;&gt;&lt;p style=&quot;border-color: var(--border-color); margin: 0px 0px 0px 4px;&quot;&gt;+ setLogicGates(): void&lt;br style=&quot;border-color: var(--border-color);&quot;&gt;+ connectGates(): void&lt;/p&gt;&lt;p style=&quot;border-color: var(--border-color); margin: 0px 0px 0px 4px;&quot;&gt;+ setInputs(): void&lt;/p&gt;&lt;p style=&quot;border-color: var(--border-color); margin: 0px 0px 0px 4px;&quot;&gt;+ setOutputs(): void&lt;/p&gt;&lt;p style=&quot;border-color: var(--border-color); margin: 0px 0px 0px 4px;&quot;&gt;+ getResult() : IntegratedCircuit&lt;/p&gt;" style="verticalAlign=top;align=left;overflow=fill;fontSize=12;fontFamily=Helvetica;html=1;whiteSpace=wrap;" parent="WIyWlLk6GJQsqaUBKTNV-1" vertex="1">
          <mxGeometry x="610" y="930" width="190" height="150" as="geometry" />
        </mxCell>
        <mxCell id="2TClkCPPBv8SPLMzAStg-33" value="" style="endArrow=none;dashed=1;html=1;strokeWidth=1;rounded=0;" parent="WIyWlLk6GJQsqaUBKTNV-1" edge="1">
          <mxGeometry width="50" height="50" relative="1" as="geometry">
            <mxPoint x="270" y="180" as="sourcePoint" />
            <mxPoint x="414" y="180" as="targetPoint" />
          </mxGeometry>
        </mxCell>
        <mxCell id="2TClkCPPBv8SPLMzAStg-34" value="" style="endArrow=none;dashed=1;html=1;strokeWidth=1;rounded=0;" parent="WIyWlLk6GJQsqaUBKTNV-1" edge="1">
          <mxGeometry width="50" height="50" relative="1" as="geometry">
            <mxPoint x="410" y="180" as="sourcePoint" />
            <mxPoint x="560" y="180" as="targetPoint" />
          </mxGeometry>
        </mxCell>
        <mxCell id="2TClkCPPBv8SPLMzAStg-35" value="" style="endArrow=none;dashed=1;html=1;strokeWidth=1;rounded=0;" parent="WIyWlLk6GJQsqaUBKTNV-1" edge="1">
          <mxGeometry width="50" height="50" relative="1" as="geometry">
            <mxPoint x="270" y="1000" as="sourcePoint" />
            <mxPoint x="270" y="180" as="targetPoint" />
          </mxGeometry>
        </mxCell>
        <mxCell id="2TClkCPPBv8SPLMzAStg-36" value="" style="endArrow=none;dashed=1;html=1;strokeWidth=1;rounded=0;" parent="WIyWlLk6GJQsqaUBKTNV-1" edge="1">
          <mxGeometry width="50" height="50" relative="1" as="geometry">
            <mxPoint x="560" y="1000" as="sourcePoint" />
            <mxPoint x="560" y="180" as="targetPoint" />
          </mxGeometry>
        </mxCell>
        <mxCell id="2TClkCPPBv8SPLMzAStg-37" value="" style="endArrow=block;dashed=1;html=1;strokeWidth=1;rounded=0;entryX=0.5;entryY=1;entryDx=0;entryDy=0;endFill=0;" parent="WIyWlLk6GJQsqaUBKTNV-1" target="2TClkCPPBv8SPLMzAStg-0" edge="1">
          <mxGeometry width="50" height="50" relative="1" as="geometry">
            <mxPoint x="414" y="180" as="sourcePoint" />
            <mxPoint x="380" y="300" as="targetPoint" />
          </mxGeometry>
        </mxCell>
      </root>
    </mxGraphModel>
  </diagram>
</mxfile>
